<svg width="512" height="512" viewBox="0 0 512 512" xmlns="http://www.w3.org/2000/svg" role="img" aria-label="Crossref News academic fraud detection icon">
  <defs>
    <linearGradient id="bg" x1="0" y1="0" x2="1" y2="1">
      <stop offset="0%" stop-color="#0F172A"/>
      <stop offset="100%" stop-color="#1E293B"/>
    </linearGradient>
    <linearGradient id="lens" x1="0" y1="0" x2="1" y2="1">
      <stop offset="0%" stop-color="#22C55E"/>
      <stop offset="100%" stop-color="#06B6D4"/>
    </linearGradient>
    <filter id="shadow" x="-20%" y="-20%" width="140%" height="140%">
      <feDropShadow dx="0" dy="8" stdDeviation="12" flood-color="#000000" flood-opacity="0.25"/>
    </filter>
  </defs>

  <rect x="24" y="24" width="464" height="464" rx="104" fill="url(#bg)"/>

  <g filter="url(#shadow)">
    <rect x="108" y="92" width="208" height="268" rx="24" fill="#F8FAFC"/>
    <rect x="138" y="132" width="104" height="20" rx="10" fill="#0F172A"/>
    <rect x="138" y="170" width="132" height="14" rx="7" fill="#94A3B8"/>
    <rect x="138" y="198" width="118" height="14" rx="7" fill="#CBD5E1"/>
    <rect x="138" y="238" width="72" height="72" rx="16" fill="#E2E8F0"/>

    <rect x="224" y="242" width="54" height="10" rx="5" fill="#64748B"/>
    <rect x="224" y="262" width="64" height="10" rx="5" fill="#94A3B8"/>
    <rect x="224" y="282" width="48" height="10" rx="5" fill="#CBD5E1"/>
  </g>

  <g>
    <line x1="156" y1="276" x2="182" y2="254" stroke="#EF4444" stroke-width="8" stroke-linecap="round"/>
    <line x1="182" y1="254" x2="196" y2="290" stroke="#EF4444" stroke-width="8" stroke-linecap="round"/>
    <line x1="156" y1="276" x2="196" y2="290" stroke="#F59E0B" stroke-width="8" stroke-linecap="round"/>

    <circle cx="156" cy="276" r="10" fill="#0F172A"/>
    <circle cx="182" cy="254" r="10" fill="#0F172A"/>
    <circle cx="196" cy="290" r="10" fill="#DC2626"/>
  </g>

  <g filter="url(#shadow)">
    <circle cx="312" cy="300" r="78" fill="none" stroke="url(#lens)" stroke-width="24"/>
    <line x1="366" y1="354" x2="420" y2="408" stroke="#22C55E" stroke-width="26" stroke-linecap="round"/>
  </g>

  <g>
    <circle cx="312" cy="300" r="14" fill="#EF4444"/>
    <path d="M312 256 L338 302 L286 302 Z" fill="#F59E0B" opacity="0.95"/>
    <rect x="306" y="272" width="12" height="20" rx="6" fill="#0F172A"/>
    <circle cx="312" cy="297" r="5" fill="#0F172A"/>
  </g>
</svg>
