<svg width="256" height="256" viewBox="0 0 256 256" xmlns="http://www.w3.org/2000/svg" role="img" aria-label="Crossref News mark">
  <defs>
    <linearGradient id="bg" x1="24" y1="24" x2="232" y2="232" gradientUnits="userSpaceOnUse">
      <stop offset="0" stop-color="#0F172A" />
      <stop offset="1" stop-color="#111827" />
    </linearGradient>
    <linearGradient id="ink" x1="58" y1="76" x2="202" y2="182" gradientUnits="userSpaceOnUse">
      <stop offset="0" stop-color="#38BDF8" />
      <stop offset="0.55" stop-color="#22C55E" />
      <stop offset="1" stop-color="#F59E0B" />
    </linearGradient>
  </defs>
  <rect x="20" y="20" width="216" height="216" rx="56" fill="url(#bg)" />
  <rect x="54" y="58" width="148" height="140" rx="28" fill="#0B1324" stroke="rgba(255,255,255,0.08)" stroke-width="2" />
  <path d="M76 150C92 126 110 110 126 102C144 93 160 92 178 96" fill="none" stroke="url(#ink)" stroke-width="8" stroke-linecap="round" />
  <path d="M76 170C95 154 112 145 129 142C148 139 164 141 182 148" fill="none" stroke="#60A5FA" stroke-opacity="0.7" stroke-width="6" stroke-linecap="round" />
  <circle cx="76" cy="150" r="7" fill="#38BDF8" />
  <circle cx="126" cy="102" r="8" fill="#22C55E" />
  <circle cx="178" cy="96" r="7" fill="#F59E0B" />
  <rect x="76" y="78" width="54" height="12" rx="6" fill="#E2E8F0" />
  <rect x="76" y="98" width="74" height="10" rx="5" fill="#94A3B8" />
  <rect x="76" y="116" width="62" height="10" rx="5" fill="#64748B" />
</svg>
